<svg width="32" height="32" viewBox="0 0 32 32" fill="none" xmlns="http://www.w3.org/2000/svg">
<path d="M21.402 15.643C21.9047 15.1784 22.3062 14.6151 22.5811 13.9882C22.8561 13.3614 22.9987 12.6845 23 12V11C22.9984 9.67441 22.4711 8.40356 21.5338 7.46622C20.5964 6.52888 19.3256 6.00159 18 6H17V3H15V6H10V26H15V29H17V26H19C20.3256 25.9984 21.5964 25.4711 22.5338 24.5338C23.4711 23.5964 23.9984 22.3256 24 21V20C23.9967 19.1077 23.7539 18.2326 23.2969 17.4662C22.8399 16.6997 22.1855 16.0701 21.402 15.643ZM12 8H18C18.7954 8.00079 19.558 8.31712 20.1204 8.87956C20.6829 9.44199 20.9992 10.2046 21 11V12C20.9992 12.7954 20.6829 13.558 20.1204 14.1204C19.558 14.6829 18.7954 14.9992 18 15H12V8ZM22 21C21.9992 21.7954 21.6829 22.558 21.1204 23.1204C20.558 23.6829 19.7954 23.9992 19 24H12V17H19C19.7954 17.0008 20.558 17.3171 21.1204 17.8796C21.6829 18.442 21.9992 19.2046 22 20V21Z" fill="#EEB73E"/>
</svg>
